<svg width="19" height="19" viewBox="0 0 19 19" fill="none" xmlns="http://www.w3.org/2000/svg">
<g clip-path="url(#clip0_315_138)">
<path d="M9.34956 1.7431C5.29399 1.7431 2.0025 5.25161 2.0025 9.57459C2.0025 13.8976 5.29399 17.4061 9.34956 17.4061C13.4051 17.4061 16.6966 13.8976 16.6966 9.57459C16.6966 5.25161 13.4051 1.7431 9.34956 1.7431ZM5.72746 14.4928C6.04339 13.7879 7.96832 13.0988 9.34956 13.0988C10.7308 13.0988 12.6631 13.7879 12.9717 14.4928C11.9725 15.3386 10.7161 15.8398 9.34956 15.8398C7.98301 15.8398 6.72666 15.3386 5.72746 14.4928ZM14.0223 13.3572C12.9717 11.9945 10.4222 11.5325 9.34956 11.5325C8.27689 11.5325 5.72746 11.9945 4.67683 13.3572C3.92743 12.3078 3.47191 10.9999 3.47191 9.57459C3.47191 6.12091 6.10951 3.3094 9.34956 3.3094C12.5896 3.3094 15.2272 6.12091 15.2272 9.57459C15.2272 10.9999 14.7717 12.3078 14.0223 13.3572ZM9.34956 4.8757C7.92423 4.8757 6.77809 6.09741 6.77809 7.61672C6.77809 9.13603 7.92423 10.3577 9.34956 10.3577C10.7749 10.3577 11.921 9.13603 11.921 7.61672C11.921 6.09741 10.7749 4.8757 9.34956 4.8757ZM9.34956 8.79145C8.73976 8.79145 8.2475 8.26674 8.2475 7.61672C8.2475 6.96671 8.73976 6.442 9.34956 6.442C9.95937 6.442 10.4516 6.96671 10.4516 7.61672C10.4516 8.26674 9.95937 8.79145 9.34956 8.79145Z" fill="#FFF9F9"/>
</g>
<defs>
<clipPath id="clip0_315_138">
<rect width="17.6329" height="18.7956" fill="white" transform="translate(0.533081 0.176819)"/>
</clipPath>
</defs>
</svg>
