<svg width="16" height="16" viewBox="0 0 16 16" fill="none" xmlns="http://www.w3.org/2000/svg">
<path d="M2.568 9.7346C2.73094 8.67548 2.81241 8.14592 2.99053 7.70931C3.47753 6.51553 4.51008 5.62968 5.76403 5.32987C6.22265 5.22021 6.75844 5.22021 7.83002 5.22021C8.9016 5.22021 9.43739 5.22021 9.89601 5.32987C11.15 5.62968 12.1825 6.51553 12.6695 7.70931C12.8476 8.14592 12.9291 8.67548 13.092 9.7346L13.3716 11.552C13.5138 12.476 13.5849 12.938 13.3654 13.2626C13.3226 13.3261 13.2725 13.3844 13.2163 13.4365C12.9288 13.7027 12.4614 13.7027 11.5265 13.7027H4.1335C3.19868 13.7027 2.73126 13.7027 2.44372 13.4365C2.38752 13.3844 2.33748 13.3261 2.29459 13.2626C2.07517 12.938 2.14625 12.476 2.28839 11.552L2.568 9.7346Z" fill="#C3C0C0"/>
<path d="M5.54626 7.17773L5.54626 4.89398C5.54626 3.6327 6.56873 2.61023 7.83001 2.61023V2.61023C9.09129 2.61023 10.1138 3.6327 10.1138 4.89398L10.1138 7.17773" stroke="white" stroke-linecap="round"/>
</svg>
