<svg width="17" height="17" viewBox="0 0 17 17" fill="none" xmlns="http://www.w3.org/2000/svg">
<path d="M15.4931 14.5264C16.0332 14.5579 16.0332 14.5579 16.0332 15.089C16.0332 15.3186 16.0332 15.5481 16.0332 15.7822C16.0332 16.0702 15.9476 16.1557 15.6641 16.1557C13.8773 16.1557 12.0859 16.1557 10.2991 16.1557C7.13047 16.1557 3.96636 16.1557 0.79776 16.1557C0.43319 16.1557 0.370178 16.0927 0.370178 15.7237C0.370178 15.4536 0.370178 15.1836 0.370178 14.9135C0.370178 14.6164 0.451194 14.5399 0.752751 14.5354C0.79776 14.5354 0.842768 14.5354 0.910281 14.5354C0.910281 14.4724 0.910281 14.4139 0.910281 14.3554C0.910281 12.0285 0.910281 9.69701 0.910281 7.37006C0.910281 7.046 0.982295 6.97399 1.30636 6.97399C1.80145 6.97399 2.29204 6.97399 2.80064 6.97399C2.80064 6.90197 2.80064 6.83896 2.80064 6.78045C2.80064 5.17364 2.80064 3.56234 2.80064 1.95553C2.80064 1.65397 2.88166 1.57746 3.17871 1.57296C3.67831 1.57296 4.1779 1.57296 4.691 1.57296C4.691 1.31641 4.691 1.06886 4.691 0.825816C4.691 0.591771 4.78552 0.497253 5.01506 0.497253C7.13497 0.497253 9.25487 0.497253 11.3793 0.497253C11.6178 0.497253 11.7123 0.591771 11.7123 0.839319C11.7123 1.08236 11.7123 1.32091 11.7123 1.57746C12.1714 1.57746 12.617 1.57746 13.0671 1.57746C13.5847 1.57746 13.6027 1.59996 13.6027 2.11756C13.6027 3.67036 13.6027 5.22315 13.6027 6.77595C13.6027 6.83896 13.6027 6.89747 13.6027 6.97849C13.8052 6.97849 13.9988 6.97849 14.1968 6.97849C14.5209 6.97849 14.8494 6.97849 15.1735 6.97849C15.394 6.97849 15.4886 7.07751 15.4931 7.29805C15.4931 7.40607 15.4931 7.50959 15.4931 7.61761C15.4931 9.85454 15.4931 12.096 15.4931 14.3329C15.4931 14.3959 15.4931 14.4544 15.4931 14.5264ZM8.74177 14.5309C8.74177 13.7343 8.74177 12.9556 8.74177 12.1725C8.74177 11.9294 8.83629 11.8349 9.07484 11.8349C10.11 11.8349 11.1452 11.8349 12.1804 11.8349C12.4325 11.8349 12.5225 11.9294 12.5225 12.186C12.5225 12.9106 12.5225 13.6353 12.5225 14.3644C12.5225 14.4184 12.5225 14.4724 12.5225 14.5309C12.7115 14.5309 12.8826 14.5309 13.0536 14.5309C13.0536 10.3901 13.0536 6.26285 13.0536 2.12656C9.81298 2.12656 6.57686 2.12656 3.34975 2.12656C3.34975 6.27185 3.34975 10.3991 3.34975 14.5264C3.52978 14.5264 3.70531 14.5264 3.88085 14.5264C3.88085 13.7388 3.88085 12.9646 3.88085 12.186C3.88085 11.9249 3.97086 11.8349 4.23641 11.8349C5.25811 11.8349 6.28431 11.8349 7.306 11.8349C7.57155 11.8349 7.66157 11.9249 7.66157 12.1905C7.66157 12.9151 7.66157 13.6398 7.66157 14.3689C7.66157 14.4229 7.66157 14.4769 7.66157 14.5354C8.02614 14.5309 8.3727 14.5309 8.74177 14.5309ZM13.6117 7.51859C13.6117 9.86354 13.6117 12.195 13.6117 14.5264C14.0618 14.5264 14.5029 14.5264 14.944 14.5264C14.944 12.186 14.944 9.85454 14.944 7.51859C14.4984 7.51859 14.0573 7.51859 13.6117 7.51859ZM1.46389 7.52309C1.46389 9.85454 1.46389 12.1905 1.46389 14.5309C1.90497 14.5309 2.34605 14.5309 2.79614 14.5309C2.79614 12.1905 2.79614 9.85904 2.79614 7.52309C2.35056 7.52309 1.91397 7.52309 1.46389 7.52309ZM0.914782 15.6066C5.78021 15.6066 10.6321 15.6066 15.4841 15.6066C15.4841 15.4266 15.4841 15.2556 15.4841 15.0845C10.6231 15.0845 5.77121 15.0845 0.914782 15.0845C0.914782 15.2601 0.914782 15.4311 0.914782 15.6066ZM11.1587 1.56846C11.1587 1.37942 11.1587 1.20839 11.1587 1.04636C9.17385 1.04636 7.20248 1.04636 5.24011 1.04636C5.24011 1.23089 5.24011 1.40193 5.24011 1.56846C7.22498 1.56846 9.19186 1.56846 11.1587 1.56846ZM5.49215 14.5309C5.49215 13.8018 5.49215 13.0907 5.49215 12.384C5.13209 12.384 4.78102 12.384 4.42995 12.384C4.42995 13.1042 4.42995 13.8153 4.42995 14.5309C4.78552 14.5309 5.13659 14.5309 5.49215 14.5309ZM6.05026 12.3795C6.05026 13.1042 6.05026 13.8198 6.05026 14.5264C6.41033 14.5264 6.7614 14.5264 7.11246 14.5264C7.11246 13.8063 7.11246 13.0952 7.11246 12.3795C6.7569 12.3795 6.40583 12.3795 6.05026 12.3795ZM9.29088 12.3795C9.29088 13.1042 9.29088 13.8153 9.29088 14.5264C9.65095 14.5264 10.002 14.5264 10.3531 14.5264C10.3531 13.8063 10.3531 13.0952 10.3531 12.3795C9.99751 12.3795 9.65095 12.3795 9.29088 12.3795ZM11.9734 14.5309C11.9734 13.8063 11.9734 13.0952 11.9734 12.384C11.6133 12.384 11.2623 12.384 10.9112 12.384C10.9112 13.1042 10.9112 13.8153 10.9112 14.5309C11.2668 14.5309 11.6178 14.5309 11.9734 14.5309Z" fill="#C3C0C0"/>
<path d="M3.88086 6.95596C3.88086 5.64621 3.88086 4.33646 3.88086 3.02671C3.88086 2.73865 3.96187 2.65314 4.24993 2.65314C6.88743 2.65314 9.52493 2.65314 12.1624 2.65314C12.437 2.65314 12.5225 2.73865 12.5225 3.01771C12.5225 5.65521 12.5225 8.29271 12.5225 10.9302C12.5225 11.2093 12.437 11.2948 12.1624 11.2948C9.52493 11.2948 6.88743 11.2948 4.24993 11.2948C3.96638 11.2948 3.88086 11.2093 3.88086 10.9212C3.88086 9.59796 3.88086 8.27921 3.88086 6.95596ZM4.42996 3.19774C4.42996 3.56681 4.42996 3.91788 4.42996 4.26444C4.79003 4.26444 5.1411 4.26444 5.48767 4.26444C5.48767 3.90438 5.48767 3.55331 5.48767 3.19774C5.1321 3.19774 4.78553 3.19774 4.42996 3.19774ZM7.11247 4.26894C7.11247 3.90438 7.11247 3.55331 7.11247 3.20224C6.75241 3.20224 6.40134 3.20224 6.05027 3.20224C6.05027 3.56231 6.05027 3.91338 6.05027 4.26894C6.40584 4.26894 6.75241 4.26894 7.11247 4.26894ZM7.66608 4.26444C8.03065 4.26444 8.38172 4.26444 8.73278 4.26444C8.73278 3.90438 8.73278 3.55331 8.73278 3.20224C8.37271 3.20224 8.02165 3.20224 7.66608 3.20224C7.66608 3.55781 7.66608 3.90888 7.66608 4.26444ZM10.3531 4.26894C10.3531 3.90438 10.3531 3.55331 10.3531 3.20224C9.99302 3.20224 9.64196 3.20224 9.29089 3.20224C9.29089 3.56231 9.29089 3.91338 9.29089 4.26894C9.64646 4.26894 9.99752 4.26894 10.3531 4.26894ZM11.9734 4.26894C11.9734 3.90438 11.9734 3.55331 11.9734 3.20224C11.6133 3.20224 11.2623 3.20224 10.9112 3.20224C10.9112 3.56231 10.9112 3.91338 10.9112 4.26894C11.2668 4.26894 11.6133 4.26894 11.9734 4.26894ZM4.42546 5.88475C4.79003 5.88475 5.1456 5.88475 5.49217 5.88475C5.49217 5.52468 5.49217 5.17362 5.49217 4.82255C5.1321 4.82255 4.78103 4.82255 4.42546 4.82255C4.42546 5.17812 4.42546 5.52919 4.42546 5.88475ZM6.05027 4.82255C6.05027 5.17812 6.05027 5.52918 6.05027 5.88925C6.40584 5.88925 6.75691 5.88925 7.11698 5.88925C7.11698 5.53369 7.11698 5.18262 7.11698 4.82255C6.75691 4.82255 6.40584 4.82255 6.05027 4.82255ZM8.73728 4.82255C8.36821 4.82255 8.01715 4.82255 7.67058 4.82255C7.67058 5.18262 7.67058 5.53369 7.67058 5.88475C8.03065 5.88475 8.38172 5.88475 8.73728 5.88475C8.73728 5.52919 8.73728 5.17812 8.73728 4.82255ZM9.29539 4.81805C9.29539 5.16912 9.29539 5.52468 9.29539 5.88475C9.64646 5.88475 9.99752 5.88475 10.3576 5.88475C10.3576 5.52468 10.3576 5.17362 10.3576 4.81805C10.002 4.81805 9.65546 4.81805 9.29539 4.81805ZM11.9734 5.88925C11.9734 5.52018 11.9734 5.16912 11.9734 4.82705C11.6088 4.82705 11.2578 4.82705 10.9157 4.82705C10.9157 5.19162 10.9157 5.54269 10.9157 5.88925C11.2713 5.88925 11.6178 5.88925 11.9734 5.88925ZM5.49217 7.50956C5.49217 7.14499 5.49217 6.79393 5.49217 6.44286C5.1321 6.44286 4.78103 6.44286 4.42996 6.44286C4.42996 6.80293 4.42996 7.15399 4.42996 7.50956C4.78553 7.50956 5.1321 7.50956 5.49217 7.50956ZM9.28639 7.50506C9.65546 7.50506 10.0065 7.50506 10.3531 7.50506C10.3531 7.14499 10.3531 6.79393 10.3531 6.44736C9.99302 6.44736 9.64196 6.44736 9.28639 6.44736C9.28639 6.80293 9.28639 7.14949 9.28639 7.50506ZM7.67058 6.43836C7.67058 6.80293 7.67058 7.15399 7.67058 7.50506C8.03065 7.50506 8.38172 7.50506 8.73278 7.50506C8.73278 7.14499 8.73278 6.79393 8.73278 6.43836C8.37722 6.43836 8.03065 6.43836 7.67058 6.43836ZM5.49667 8.06317C5.1366 8.06317 4.78553 8.06317 4.42996 8.06317C4.42996 8.42324 4.42996 8.7743 4.42996 9.12987C4.79003 9.12987 5.1411 9.12987 5.49667 9.12987C5.49667 8.7743 5.49667 8.42324 5.49667 8.06317ZM6.05027 8.05867C6.05027 8.42324 6.05027 8.7743 6.05027 9.12537C6.41034 9.12537 6.76141 9.12537 7.11247 9.12537C7.11247 8.7653 7.11247 8.41423 7.11247 8.05867C6.75691 8.05867 6.40584 8.05867 6.05027 8.05867ZM7.66608 9.12087C8.01715 9.12087 8.37271 9.12087 8.73278 9.12087C8.73278 8.7698 8.73278 8.41874 8.73278 8.05867C8.37271 8.05867 8.02165 8.05867 7.66608 8.05867C7.66608 8.41423 7.66608 8.7608 7.66608 9.12087ZM10.3576 8.06317C9.98852 8.06317 9.63746 8.06317 9.29089 8.06317C9.29089 8.42324 9.29089 8.7743 9.29089 9.12537C9.65096 9.12537 10.002 9.12537 10.3576 9.12537C10.3576 8.7698 10.3576 8.41874 10.3576 8.06317ZM11.9779 8.06317C11.6133 8.06317 11.2623 8.06317 10.9112 8.06317C10.9112 8.42324 10.9112 8.7743 10.9112 9.12537C11.2713 9.12537 11.6223 9.12537 11.9779 9.12537C11.9779 8.7698 11.9779 8.42324 11.9779 8.06317ZM4.42996 9.67898C4.42996 10.0435 4.42996 10.3946 4.42996 10.7457C4.79003 10.7457 5.1411 10.7457 5.49217 10.7457C5.49217 10.3856 5.49217 10.0345 5.49217 9.67898C5.1366 9.67898 4.79003 9.67898 4.42996 9.67898ZM6.04577 10.7457C6.41484 10.7457 6.76591 10.7457 7.11247 10.7457C7.11247 10.3856 7.11247 10.0345 7.11247 9.68348C6.75241 9.68348 6.40134 9.68348 6.04577 9.68348C6.04577 10.0435 6.04577 10.3901 6.04577 10.7457ZM7.66608 10.7457C8.03065 10.7457 8.38172 10.7457 8.73278 10.7457C8.73278 10.3856 8.73278 10.0345 8.73278 9.68348C8.37271 9.68348 8.02165 9.68348 7.66608 9.68348C7.66608 10.039 7.66608 10.3856 7.66608 10.7457ZM9.28639 10.7457C9.65546 10.7457 10.0065 10.7457 10.3531 10.7457C10.3531 10.3856 10.3531 10.0345 10.3531 9.68348C9.99302 9.68348 9.64196 9.68348 9.28639 9.68348C9.28639 10.0435 9.28639 10.3901 9.28639 10.7457ZM10.9112 9.67898C10.9112 10.048 10.9112 10.3991 10.9112 10.7457C11.2713 10.7457 11.6223 10.7457 11.9734 10.7457C11.9734 10.3856 11.9734 10.0345 11.9734 9.67898C11.6178 9.67898 11.2668 9.67898 10.9112 9.67898ZM7.11247 7.50956C7.11247 7.14049 7.11247 6.78942 7.11247 6.44286C6.75241 6.44286 6.40134 6.44286 6.05027 6.44286C6.05027 6.80293 6.05027 7.15399 6.05027 7.50956C6.40584 7.50956 6.75691 7.50956 7.11247 7.50956ZM10.9067 7.50056C11.2758 7.50056 11.6268 7.50056 11.9689 7.50056C11.9689 7.13599 11.9689 6.78492 11.9689 6.44286C11.6043 6.44286 11.2533 6.44286 10.9067 6.44286C10.9067 6.80293 10.9067 7.14949 10.9067 7.50056Z" fill="#C3C0C0"/>
</svg>
