<svg width="16" height="16" viewBox="0 0 16 16" fill="none" xmlns="http://www.w3.org/2000/svg">
<path d="M1.95752 5.95752C1.95752 4.0719 1.95752 3.12909 2.54331 2.54331C3.12909 1.95752 4.0719 1.95752 5.95752 1.95752H9.70252C11.5881 1.95752 12.5309 1.95752 13.1167 2.54331C13.7025 3.12909 13.7025 4.0719 13.7025 5.95752V9.70252C13.7025 11.5881 13.7025 12.5309 13.1167 13.1167C12.5309 13.7025 11.5881 13.7025 9.70252 13.7025H5.95752C4.0719 13.7025 3.12909 13.7025 2.54331 13.1167C1.95752 12.5309 1.95752 11.5881 1.95752 9.70252V5.95752Z" stroke="#C3C0C0" stroke-width="2"/>
<path fill-rule="evenodd" clip-rule="evenodd" d="M11.745 6.525H8.56168C8.01455 6.525 7.74098 6.525 7.48515 6.45601C7.31851 6.41106 7.15839 6.34474 7.00878 6.25869C6.77909 6.12658 6.58565 5.93314 6.19877 5.54625C5.81189 5.15937 5.61844 4.96593 5.38876 4.83382C5.23915 4.74777 5.07903 4.68145 4.91239 4.6365C4.65656 4.5675 4.38299 4.5675 3.83586 4.5675H1.95752V9.7025C1.95752 11.5881 1.95752 12.5309 2.54331 13.1167C3.12909 13.7025 4.0719 13.7025 5.95752 13.7025H9.70252C11.5881 13.7025 12.5309 13.7025 13.1167 13.1167C13.7025 12.5309 13.7025 11.5881 13.7025 9.70251V4.5675C13.7025 5.6486 12.8261 6.525 11.745 6.525ZM4.56752 9.44C4.01523 9.44 3.56752 9.88772 3.56752 10.44C3.56752 10.9923 4.01523 11.44 4.56752 11.44H9.78752C10.3398 11.44 10.7875 10.9923 10.7875 10.44C10.7875 9.88772 10.3398 9.44 9.78752 9.44H4.56752Z" fill="#C3C0C0"/>
</svg>
