<svg width="17" height="17" viewBox="0 0 17 17" fill="none" xmlns="http://www.w3.org/2000/svg">
<path d="M7.48505 1.86749L13.9448 2.79013L14.8674 9.24988L8.869 15.2477C8.74664 15.37 8.5807 15.4387 8.40768 15.4387C8.23466 15.4387 8.06873 15.37 7.94637 15.2477L1.48662 8.78791C1.36449 8.66557 1.2959 8.49978 1.2959 8.32692C1.2959 8.15406 1.36449 7.98826 1.48662 7.86593L7.48505 1.86749ZM9.33097 7.40396C9.45135 7.5286 9.59535 7.62801 9.75457 7.69641C9.91378 7.7648 10.085 7.8008 10.2583 7.80231C10.4316 7.80381 10.6034 7.77079 10.7638 7.70518C10.9242 7.63956 11.0699 7.54266 11.1924 7.42013C11.3149 7.2976 11.4118 7.15189 11.4775 6.99151C11.5431 6.83113 11.5761 6.65929 11.5746 6.48602C11.5731 6.31274 11.5371 6.1415 11.4687 5.98228C11.4003 5.82307 11.3009 5.67907 11.1762 5.55869C10.9301 5.32097 10.6005 5.18943 10.2583 5.19241C9.91613 5.19538 9.58882 5.33262 9.34687 5.57458C9.10491 5.81654 8.96766 6.14385 8.96469 6.48602C8.96172 6.82818 9.09325 7.15783 9.33097 7.40396Z" fill="#C3C0C0"/>
</svg>
