<svg width="12" height="10" viewBox="0 0 12 10" fill="none" xmlns="http://www.w3.org/2000/svg">
<path opacity="0.4" d="M7.0211 3.65992V2.48167C6.7898 2.48167 6.59799 2.29535 6.59799 2.07066V0.667727C6.59799 0.480852 6.44567 0.333435 6.25386 0.333435H2.37813C1.15956 0.333435 0.166656 1.2974 0.166656 2.48167V3.9005C0.166656 4.01065 0.211789 4.11477 0.29077 4.1915C0.369751 4.26767 0.47694 4.31151 0.589771 4.31151C1.01853 4.31151 1.34573 4.60745 1.34573 4.99654C1.34573 5.40262 1.01288 5.72595 0.595412 5.73089C0.36411 5.73089 0.166656 5.88981 0.166656 6.11998V7.52346C0.166656 8.70718 1.15956 9.66622 2.37249 9.66622H6.25386C6.44567 9.66622 6.59799 9.51771 6.59799 9.33193V8.14766C6.59799 7.91804 6.7898 7.73664 7.0211 7.73664V6.67403C6.7898 6.67403 6.59799 6.48715 6.59799 6.26301V4.07093C6.59799 3.84624 6.7898 3.65992 7.0211 3.65992Z" fill="#0F212B"/>
<path d="M10.6543 4.99697C10.6543 5.4025 10.9927 5.72583 11.4046 5.73131C11.6359 5.73131 11.8333 5.89024 11.8333 6.11493V7.52334C11.8333 8.70761 10.8461 9.66665 9.6275 9.66665H7.78837C7.6022 9.66665 7.44423 9.51813 7.44423 9.33181V8.14808C7.44423 7.91791 7.25806 7.73707 7.02112 7.73707V6.67446C7.25806 6.67446 7.44423 6.48758 7.44423 6.26344V4.07136C7.44423 3.84612 7.25806 3.66034 7.02112 3.66034V2.48155C7.25806 2.48155 7.44423 2.29523 7.44423 2.07054V0.668153C7.44423 0.481278 7.6022 0.333313 7.78837 0.333313H9.6275C10.8461 0.333313 11.8333 1.29235 11.8333 2.47607V3.85708C11.8333 3.96669 11.7882 4.07136 11.7092 4.14753C11.6302 4.22426 11.5231 4.2681 11.4102 4.2681C10.9927 4.2681 10.6543 4.59746 10.6543 4.99697Z" fill="#0F212B"/>
</svg>
