<svg width="12" height="12" viewBox="0 0 12 12" fill="none" xmlns="http://www.w3.org/2000/svg">
<path opacity="0.4" d="M11.8332 5.99996C11.8332 9.22229 9.22165 11.8333 5.9999 11.8333C2.77815 11.8333 0.166565 9.22229 0.166565 5.99996C0.166565 2.77879 2.77815 0.166626 5.9999 0.166626C9.22165 0.166626 11.8332 2.77879 11.8332 5.99996Z" fill="#0F212B"/>
<path d="M8.08457 8.22511C8.00815 8.22511 7.93115 8.20527 7.86057 8.16386L5.5704 6.79769C5.43857 6.71836 5.35748 6.57544 5.35748 6.42144V3.47736C5.35748 3.23586 5.55348 3.03986 5.79498 3.03986C6.03648 3.03986 6.23248 3.23586 6.23248 3.47736V6.17294L8.30915 7.41136C8.51623 7.53561 8.58448 7.80394 8.46082 8.01161C8.37857 8.14869 8.23332 8.22511 8.08457 8.22511Z" fill="#0F212B"/>
</svg>
