<svg width="16" height="16" viewBox="0 0 16 16" fill="none" xmlns="http://www.w3.org/2000/svg">
<path d="M13.05 3.61C13.6023 3.61 14.05 3.16228 14.05 2.61C14.05 2.05771 13.6023 1.61 13.05 1.61V3.61ZM3.58874 3.61L13.05 3.61V1.61L3.58874 1.61V3.61ZM3.58874 6.8725L8.80874 6.8725V4.8725L3.58874 4.8725V6.8725ZM2.95749 4.24125C2.95749 3.89262 3.24011 3.61 3.58874 3.61V1.61C2.13554 1.61 0.957493 2.78805 0.957493 4.24125H2.95749ZM0.957493 4.24125C0.957493 5.69445 2.13554 6.8725 3.58874 6.8725V4.8725C3.24011 4.8725 2.95749 4.58988 2.95749 4.24125H0.957493Z" fill="#C3C0C0"/>
<path d="M1.95752 7.83002L1.95752 4.24127" stroke="#C3C0C0" stroke-width="2"/>
<path d="M14.2025 11.245V11.745C14.2025 11.7555 14.2025 11.766 14.2025 11.7764C14.2025 12.2003 14.2026 12.5656 14.1647 12.8592C14.1242 13.1732 14.0331 13.4758 13.798 13.7272L13.4328 13.3856L13.798 13.7272C13.7752 13.7516 13.7516 13.7752 13.7272 13.798L13.7272 13.798C13.4758 14.0331 13.1732 14.1242 12.8592 14.1647C12.5656 14.2026 12.2003 14.2025 11.7764 14.2025C11.766 14.2025 11.7555 14.2025 11.745 14.2025L3.95751 14.2025L3.9246 14.2025C3.48136 14.2025 3.09945 14.2026 2.79362 14.1614C2.46586 14.1174 2.15169 14.018 1.89686 13.7632C1.64202 13.5083 1.54265 13.1942 1.49858 12.8664C1.45747 12.5606 1.45749 12.1787 1.45751 11.7354L1.45751 11.7025L1.45751 5.87251V5.37251H1.95751L11.745 5.37251L11.7764 5.37251C12.2003 5.37249 12.5656 5.37247 12.8592 5.41033C13.1732 5.45082 13.4758 5.54188 13.7272 5.77705M14.2025 11.245L13.7272 5.77705C13.7272 5.77705 13.7272 5.77705 13.7272 5.77705M14.2025 11.245H13.7025M14.2025 11.245H13.7025M13.7272 5.77705L13.3856 6.1422C13.0973 5.87252 12.6465 5.87251 11.745 5.87251L2.45751 5.87251H1.95751V6.37251L1.95751 11.7025C1.95751 12.6453 1.95751 13.1167 2.25041 13.4096C2.5433 13.7025 3.01471 13.7025 3.95751 13.7025L11.745 13.7025C12.6465 13.7025 13.0973 13.7025 13.3856 13.4328L13.7272 5.77705ZM13.7272 5.77705C13.7516 5.79985 13.7752 5.82346 13.798 5.84784L13.446 6.17707M13.7272 5.77705L13.446 6.17707M13.7025 11.245H11.745C10.9401 11.245 10.2875 10.5925 10.2875 9.78751C10.2875 8.98256 10.9401 8.33001 11.745 8.33001H13.7025H14.2025M13.7025 11.245L14.2025 8.33001M14.2025 8.33001L14.2025 7.83001M14.2025 8.33001L14.2025 7.83001M14.2025 7.83001L14.2025 7.7986C14.2025 7.37471 14.2026 7.00941 14.1647 6.71581C14.1242 6.40181 14.0331 6.09926 13.798 5.84784L13.446 6.17707M14.2025 7.83001L13.446 6.17707" fill="#C3C0C0" stroke="#C3C0C0"/>
</svg>
